<?xml version="1.0" encoding="UTF-8"?>
<!-- Generator: Adobe Illustrator 23.0.1, SVG Export Plug-In . SVG Version: 6.00 Build 0)  -->
<svg version="1.1" id="Layer_1" xmlns="http://www.w3.org/2000/svg" xmlns:xlink="http://www.w3.org/1999/xlink" x="0px" y="0px" viewBox="0 0 170 170" style="enable-background:new 0 0 170 170;" xml:space="preserve">
<style type="text/css">
	.st0{fill:none;}
	.st1{fill:none;stroke:#007EC3;stroke-width:4;stroke-miterlimit:10;}
	.st2{fill:none;stroke:#007EC3;stroke-width:3;stroke-linecap:round;stroke-miterlimit:10;}
	.st3{fill:none;stroke:#007EC3;stroke-miterlimit:10;}
	.st4{fill:none;stroke:#007EC3;stroke-width:3;stroke-miterlimit:10;}
	.st5{fill:#007EC3;}
</style>
<g>
	<g>
		<rect width="170" height="170"/>
	</g>
	<g>
		<g>
			<path class="st0" d="M54,156"/>
			<path class="st1" d="M67.3,81.5"/>
			<path class="st1" d="M144.5,81.5"/>
			<path class="st1" d="M144.9,82.4c-0.1-0.6-0.2-0.9-0.3-0.9"/>
			<g>
				<g>
					<path class="st1" d="M144.5,81.5h-6c-0.6,0-1-0.4-1-1l-0.3-15.7c0-0.5-0.4-1.3-0.8-1.6l-20.7-13.9c-0.5-0.3-1.2-0.4-1.7-0.1       l-3.2,1.5c-0.5,0.2-1.3,0.1-1.7-0.2l-2.5-2c-0.4-0.3-1.2-0.5-1.7-0.3L94.6,52c-0.5,0.2-0.9,0.8-0.9,1.3v3.3c0,0.6-0.1,1-0.3,1       s-0.3,0.5-0.3,1V59c0,0.5,0.2,1,0.4,1s0.4,0.5,0.4,1v2.7c0,0.6-0.2,1-0.5,1c-0.3,0-0.5,0.2-0.5,0.5c0,0.3-0.4,0.3-0.9,0.1       L62.4,53.1c-0.5-0.2-0.9-0.8-0.9-1.4l0.1-2.9c0-0.5-0.4-1.1-0.9-1.3l-4.6-1.5c-0.5-0.2-0.9-0.8-0.9-1.3l0.1-18.4       c0-0.5-0.1-1-0.3-1c-0.2,0-0.3-0.2-0.3-0.4s-0.5-0.4-1-0.4h-0.6c-0.5,0-1-0.3-1-0.6c0-0.3-0.3-0.6-0.6-0.6       c-0.3,0-0.6-0.2-0.6-0.4c0-0.2-0.4-0.4-1-0.4h-1.8c-0.5,0-1-0.2-1-0.4c0-0.2-0.4-0.5-1-0.5l-2.4-0.2c-0.5,0-1-0.5-1-1.1V8.5       c0-0.5-0.1-1-0.3-1s-0.3,0.4-0.3,1v12.1c0,0.6-0.1,1-0.3,1s-0.3,0.5-0.3,1v0.4c0,0.5-0.5,1-1,1h-1.2c-0.5,0-1.2,0.4-1.4,0.9       l-1,2.6c-0.2,0.5-0.8,1.1-1.3,1.2l-1,0.3c-0.5,0.2-1,0.7-1,1.3V45c0,0.6-0.4,1.3-0.8,1.6l-6.9,5.3c-0.4,0.3-0.8,1.1-0.8,1.6       v11.2c0,0.5,0.4,1.2,0.9,1.4l6.7,3c0.5,0.2,0.9,0.9,0.9,1.4l-1,85c0,0.5,0.4,1,1,1c0,0,13.8,0.2,20.6,0"/>
					<path class="st2" d="M54.1,141l-1-63c0-0.5,0.4-0.8,0.9-0.6l35.5,13.7c0.5,0.2,1.4,0.3,1.9,0.1l12.5-3.1       c0.5-0.1,1.2-0.6,1.5-1.1l0.5-0.9c0.3-0.5,0.9-1,1.5-1.1l3.6-0.8c0.5-0.1,1.4,0,1.9,0.3l16.7,9"/>
					<path class="st3" d="M45,147.5c-0.6-12.3,0.2-43.1-0.6-55.4c0-8.6-0.4-16.9,0.2-25.4"/>
					<polyline class="st3" points="52.8,45.2 41.3,42.3 39.3,44.7 36.6,43.8 35.1,45.2      "/>
					<path class="st4" d="M52.8,67.6"/>
					<polyline class="st3" points="27.5,62 36.9,54.1 39,54.1 41.6,52.3 60.1,58.5 52.8,63.8      "/>
					<polyline class="st3" points="35.1,67.6 41.9,62 46.6,62 51.6,63.5      "/>
					<line class="st3" x1="52.8" y1="67.6" x2="104.8" y2="87.9"/>
					<line class="st3" x1="52.8" y1="66.1" x2="52.8" y2="74.1"/>
					<polyline class="st3" points="95.4,66.7 102.5,69.1 114.5,66.7 134.5,77.9      "/>
					<line class="st3" x1="109.5" y1="52.5" x2="109.5" y2="60.7"/>
					<line class="st3" x1="105.7" y1="52.5" x2="105.7" y2="63.9"/>
					<line class="st3" x1="115.1" y1="51.6" x2="115.1" y2="62.5"/>
					<path class="st4" d="M107.8,112.3"/>
					<polyline class="st3" points="112.5,81.7 115.1,75.8 132.5,85.5      "/>
					<line class="st3" x1="115.1" y1="75.8" x2="103.4" y2="79.7"/>
					<line class="st3" x1="62.8" y1="64.1" x2="99" y2="78.8"/>
					<line class="st3" x1="43.4" y1="40" x2="43.4" y2="24.1"/>
					<line class="st3" x1="38.7" y1="27.9" x2="38.7" y2="42.3"/>
					<path class="st4" d="M60.1,54.1"/>
					<path class="st4" d="M101.6,36.4"/>
					<path class="st4" d="M32.8,19.7"/>
				</g>
				<path class="st1" d="M53.5,156.5h91c0.2,0,0.5-1.3,0.5-2.8V84.3c0-0.7,0-1.4-0.1-1.9"/>
			</g>
		</g>
		<g>
			<path class="st5" d="M90.1,110.1c-0.6-1.6-1.3-2.9-2.1-3.8c-0.8-0.9-1.8-1.7-3.1-2.2c-1.3-0.5-3-1-5.3-1.3l1.2-6.6     c4.1,0.5,7.4,1.4,9.9,2.7c2.4,1.3,4.4,3.1,5.8,5.6c1.4,2.5,2.7,5.9,3.8,10.3c1.1,4.6,2.2,8.4,3.2,11.6c1,3.2,2.1,5.9,3.3,8.2     c1.2,2.3,2.5,4.4,4,6.2l-9.6,3c-1.4-2.1-2.7-4.4-3.7-6.8c-1-2.4-1.9-5.2-2.7-8.4c-0.8-3.2-1.5-7-2.2-11.6l-6.9,26.8l-9.6-2.2     L87,110.1H90.1z"/>
		</g>
	</g>
</g>
</svg>