<?xml version="1.0" encoding="UTF-8"?>
<!-- Generator: Adobe Illustrator 23.0.1, SVG Export Plug-In . SVG Version: 6.00 Build 0)  -->
<svg version="1.1" id="Layer_1" xmlns="http://www.w3.org/2000/svg" xmlns:xlink="http://www.w3.org/1999/xlink" x="0px" y="0px" viewBox="0 0 657 192" style="enable-background:new 0 0 657 192;" xml:space="preserve">
<style type="text/css">
	.st0{fill:#FFFFFF;}
	.st1{fill:#007EC3;}
	.st2{fill:none;stroke:#007EC3;stroke-width:4;stroke-miterlimit:10;}
	.st3{fill:none;stroke:#007EC3;stroke-width:3;stroke-linecap:round;stroke-miterlimit:10;}
	.st4{fill:none;stroke:#007EC3;stroke-miterlimit:10;}
	.st5{fill:none;stroke:#007EC3;stroke-width:3;stroke-miterlimit:10;}
</style>
<g>
	<rect x="0" y="0" width="657" height="192"/>
	<g>
		<path class="st0" d="M92.2,108.5l-3.1,7.3c-2.5-0.9-5.1-1.4-8-1.4c-2.2,0-3.8,0.4-4.7,1.2c-0.9,0.8-1.4,2.1-1.4,4v5h12.1l-1.2,7.7    H75v27.4H64v-27.4h-7.8v-7.7H64v-5.4c0-2.5,0.6-4.7,1.8-6.7c1.2-2,2.9-3.5,5.3-4.6c2.3-1.1,5.1-1.7,8.4-1.7    C84.3,106.2,88.6,106.9,92.2,108.5z"/>
		<path class="st0" d="M108.9,147.9c0,1.7,0.3,3,0.9,3.7c0.6,0.7,1.6,1.1,2.8,1.1c1.1,0,2.3-0.4,3.4-1.1c1.1-0.7,2.1-1.7,2.9-3    v-26.4h11.1v37.5h-9.7l-0.5-4.4c-1.2,1.8-2.9,3.2-4.9,4.1c-2,1-4.2,1.4-6.5,1.4c-3.5,0-6.2-1-8-3.1c-1.8-2-2.7-4.9-2.7-8.6v-27    h11.1V147.9z"/>
		<path class="st0" d="M140,159.7v-37.5h9.7l0.8,4.3c1.7-1.9,3.5-3.3,5.3-4.2c1.8-0.9,3.9-1.4,6.3-1.4c3.2,0,5.7,1,7.5,2.9    c1.8,2,2.7,4.7,2.7,8.2v27.5h-11.1v-24.3c0-1.6-0.1-2.8-0.3-3.7c-0.2-0.9-0.6-1.5-1.1-1.9c-0.5-0.4-1.2-0.6-2.1-0.6    c-1.1,0-2.2,0.4-3.3,1.1c-1.1,0.7-2.1,1.8-3.2,3.2v26.2H140z"/>
		<path class="st0" d="M206,151.3c1.3-0.6,2.7-1.3,4.2-2.4l5,7.1c-1.8,1.5-3.8,2.7-6.2,3.6c-2.4,0.9-4.9,1.3-7.7,1.3    c-4,0-7.4-0.8-10.3-2.5c-2.9-1.6-5.1-4-6.7-6.9c-1.5-3-2.3-6.4-2.3-10.3c0-3.9,0.8-7.4,2.4-10.4c1.6-3.1,3.9-5.5,6.8-7.2    c2.9-1.7,6.4-2.6,10.3-2.6c2.8,0,5.3,0.4,7.5,1.2c2.2,0.8,4.3,2,6.2,3.5l-4.8,6.7c-2.7-1.9-5.5-2.8-8.4-2.8    c-2.6,0-4.7,0.9-6.2,2.8c-1.5,1.9-2.2,4.8-2.2,8.9c0,3.9,0.7,6.7,2.2,8.4c1.5,1.7,3.5,2.5,6.1,2.5    C203.3,152.1,204.7,151.8,206,151.3z"/>
		<path class="st0" d="M225.7,122.2H247v29.8h9.5v7.6h-31.1v-7.6h10.6v-22.2h-10.2V122.2z M243.7,103.4c1,0.6,1.8,1.3,2.3,2.3    c0.6,1,0.8,2,0.8,3.2c0,1.2-0.3,2.2-0.8,3.2c-0.6,1-1.3,1.7-2.3,2.3c-1,0.6-2.1,0.8-3.4,0.8c-1.3,0-2.4-0.3-3.4-0.8    c-1-0.6-1.8-1.3-2.4-2.3c-0.6-1-0.8-2-0.8-3.2c0-1.2,0.3-2.2,0.8-3.2c0.6-1,1.3-1.7,2.4-2.3c1-0.6,2.1-0.8,3.4-0.8    S242.7,102.9,243.7,103.4z"/>
		<path class="st0" d="M292.3,123.4c2.7,1.6,4.8,3.9,6.2,6.9c1.4,3,2.1,6.5,2.1,10.5c0,4.2-0.7,7.7-2.2,10.7c-1.4,3-3.5,5.3-6.2,6.9    s-6,2.4-9.7,2.4c-3.8,0-7-0.8-9.8-2.4c-2.7-1.6-4.8-3.9-6.2-6.9c-1.4-3-2.1-6.6-2.1-10.7c0-4,0.7-7.5,2.2-10.5    c1.4-3,3.5-5.3,6.2-7c2.7-1.7,6-2.5,9.7-2.5C286.3,121,289.5,121.8,292.3,123.4z M277.5,132c-1.1,1.9-1.6,4.8-1.6,8.9    c0,4.1,0.5,7.1,1.6,9c1.1,1.9,2.8,2.8,5.1,2.8c2.3,0,4-0.9,5.1-2.8c1.1-1.9,1.6-4.9,1.6-9c0-4-0.5-7-1.6-8.8    c-1.1-1.9-2.8-2.8-5-2.8C280.2,129.2,278.6,130.1,277.5,132z"/>
		<path class="st1" d="M321.5,122.2c-0.7-1.9-1.5-3.4-2.4-4.4c-0.9-1.1-2.1-1.9-3.5-2.5c-1.5-0.6-3.5-1.1-6-1.5l1.3-7.6    c4.7,0.6,8.5,1.6,11.3,3.1c2.8,1.4,5,3.6,6.6,6.4c1.7,2.8,3.1,6.8,4.3,11.9c1.3,5.2,2.5,9.7,3.7,13.3c1.2,3.6,2.5,6.8,3.8,9.4    c1.3,2.6,2.8,5,4.5,7.2l-11,3.5c-1.6-2.4-3-5.1-4.2-7.8c-1.2-2.8-2.2-6-3.1-9.6c-0.9-3.6-1.7-8.1-2.6-13.3l-7.8,30.8l-11-2.6    l12.4-36.1H321.5z"/>
		<path class="st0" d="M382,148.9c0,1.4,0.2,2.4,0.6,3.1c0.4,0.6,1,1.1,1.9,1.5l-2.3,7.3c-2.3-0.2-4.1-0.7-5.6-1.5    c-1.5-0.8-2.7-1.9-3.5-3.4c-1.4,1.7-3.2,2.9-5.4,3.8c-2.2,0.9-4.5,1.3-6.9,1.3c-2.5,0-4.7-0.5-6.7-1.5c-1.9-1-3.4-2.4-4.4-4.2    c-1-1.8-1.5-3.8-1.5-6.1c0-2.7,0.7-5,2.1-6.9c1.4-1.9,3.5-3.4,6.2-4.4c2.7-1,6-1.5,9.8-1.5h5v-1.4c0-3.8-2.5-5.8-7.4-5.8    c-1.2,0-2.8,0.2-4.7,0.5c-1.9,0.4-3.7,0.8-5.5,1.4l-2.6-7.4c2.3-0.9,4.8-1.6,7.4-2.1c2.6-0.5,5-0.7,7.1-0.7    c5.5,0,9.6,1.1,12.3,3.4c2.7,2.2,4,5.5,4,9.9V148.9z M368.4,151.8c1.3-0.7,2.3-1.7,2.9-3v-6.1h-2.7c-3,0-5.3,0.5-6.8,1.4    c-1.5,0.9-2.2,2.3-2.2,4.2c0,1.5,0.4,2.6,1.3,3.4c0.9,0.8,2.1,1.2,3.7,1.2C365.9,152.9,367.1,152.5,368.4,151.8z"/>
		<path class="st0" d="M412.2,147.9c0,1.5,0.4,2.5,1.2,3.2c0.8,0.7,2,1,3.6,1c1.7,0,3.4-0.4,5.3-1.1l2.7,7.4    c-3.1,1.6-6.7,2.5-10.8,2.5c-4.4,0-7.6-1.3-9.8-3.8c-2.2-2.5-3.2-6.1-3.2-10.6v-31.6h-11v-7.6h22.1V147.9z"/>
		<path class="st0" d="M463,106.4c3.2,2.4,5.5,5.7,6.9,10c1.4,4.3,2.1,9.5,2.1,15.7c0,6.3-0.3,11.5-0.9,15.4c-0.6,3.9-1.7,6.9-3.4,9    c-1.6,2.1-3.9,3.1-6.8,3.1c-2.5,0-4.5-0.9-5.9-2.7c-1.4-1.8-2.2-4.1-2.6-7h-0.3c-0.8,1.9-2.1,3.5-3.8,4.7    c-1.7,1.2-3.7,1.8-6.1,1.8c-3.9,0-6.8-1.5-8.6-4.4c-1.8-2.9-2.7-6.8-2.7-11.7c0-6,1.2-10.6,3.7-14c2.5-3.3,6.2-5,11.2-5    c1.9,0,3.9,0.3,5.9,0.8c2,0.5,4,1.3,5.9,2.3v21.2c0,2.6,0.2,4.4,0.7,5.4c0.4,1.1,1.2,1.6,2.1,1.6c0.9,0,1.5-0.6,1.9-1.9    c0.4-1.3,0.7-3.2,0.8-5.9c0.1-2.7,0.2-6.7,0.2-12.1c0-5.2-0.4-9.5-1.2-12.8c-0.8-3.3-2.2-5.8-4.2-7.6c-2-1.7-4.9-2.6-8.5-2.6    c-2.6,0-5.1,0.5-7.6,1.5c-2.5,1-5.1,2.7-7.7,5l-4.4-5.2c3.2-2.8,6.4-4.9,9.7-6.2s6.8-2,10.6-2C455.5,102.9,459.8,104,463,106.4z     M442.9,129.5c-0.7,0.7-1.2,2-1.4,3.7c-0.3,1.7-0.4,4.1-0.4,7.2c0,2.2,0.1,4,0.3,5.3c0.2,1.3,0.6,2.3,1.1,2.9    c0.5,0.6,1.2,0.9,2,0.9c1.4,0,2.4-0.5,2.9-1.4c0.5-0.9,0.9-2.1,1.1-3.6V129c-0.5-0.2-0.9-0.4-1.3-0.5c-0.4-0.1-0.9-0.2-1.4-0.2    C444.5,128.4,443.5,128.7,442.9,129.5z"/>
		<path class="st0" d="M496.5,152c1.1-0.6,1.7-1.5,1.7-2.6c0-0.8-0.2-1.5-0.7-2c-0.4-0.5-1.3-1-2.5-1.5c-1.2-0.5-3.1-1.1-5.7-1.8    c-3.7-1-6.6-2.4-8.6-4.2c-2-1.8-3-4.2-3-7.3c0-2.3,0.6-4.3,1.9-6c1.3-1.7,3.1-3.1,5.5-4.1c2.4-1,5.4-1.5,8.8-1.5    c5.9,0,11,1.5,15.1,4.6l-4.4,6.6c-1.6-1-3.3-1.8-5.1-2.3c-1.8-0.6-3.5-0.8-5.3-0.8c-1.8,0-3.1,0.2-4,0.7c-0.9,0.5-1.3,1.2-1.3,2.2    c0,0.7,0.2,1.2,0.7,1.7c0.5,0.4,1.3,0.9,2.5,1.4c1.2,0.5,3.1,1.1,5.6,1.8c2.7,0.8,4.9,1.6,6.6,2.5c1.7,0.9,3,2.1,3.9,3.6    c0.9,1.5,1.4,3.4,1.4,5.8c0,2.6-0.8,4.9-2.4,6.8c-1.6,1.9-3.7,3.3-6.4,4.2c-2.7,0.9-5.6,1.4-8.9,1.4c-3.5,0-6.6-0.5-9.4-1.5    c-2.8-1-5.2-2.4-7.2-4.1l5.6-6.3c1.5,1.2,3.2,2.2,5.1,2.9c1.8,0.7,3.8,1.1,5.9,1.1C493.9,152.9,495.4,152.6,496.5,152z"/>
		<path class="st0" d="M538.6,152c1.1-0.6,1.7-1.5,1.7-2.6c0-0.8-0.2-1.5-0.7-2c-0.4-0.5-1.3-1-2.5-1.5c-1.2-0.5-3.1-1.1-5.7-1.8    c-3.7-1-6.6-2.4-8.6-4.2c-2-1.8-3-4.2-3-7.3c0-2.3,0.6-4.3,1.9-6c1.3-1.7,3.1-3.1,5.5-4.1c2.4-1,5.4-1.5,8.8-1.5    c5.9,0,11,1.5,15.1,4.6l-4.4,6.6c-1.6-1-3.3-1.8-5.1-2.3c-1.8-0.6-3.5-0.8-5.3-0.8c-1.8,0-3.1,0.2-4,0.7c-0.9,0.5-1.3,1.2-1.3,2.2    c0,0.7,0.2,1.2,0.7,1.7c0.5,0.4,1.3,0.9,2.5,1.4c1.2,0.5,3.1,1.1,5.6,1.8c2.7,0.8,4.9,1.6,6.6,2.5c1.7,0.9,3,2.1,3.9,3.6    c0.9,1.5,1.4,3.4,1.4,5.8c0,2.6-0.8,4.9-2.4,6.8c-1.6,1.9-3.7,3.3-6.4,4.2c-2.7,0.9-5.6,1.4-8.9,1.4c-3.5,0-6.6-0.5-9.4-1.5    c-2.8-1-5.2-2.4-7.2-4.1l5.6-6.3c1.5,1.2,3.2,2.2,5.1,2.9c1.8,0.7,3.8,1.1,5.9,1.1C536,152.9,537.5,152.6,538.6,152z"/>
		<path class="st0" d="M592.7,148.9c0,1.4,0.2,2.4,0.6,3.1c0.4,0.6,1,1.1,1.9,1.5l-2.3,7.3c-2.3-0.2-4.1-0.7-5.6-1.5    c-1.5-0.8-2.7-1.9-3.5-3.4c-1.4,1.7-3.2,2.9-5.4,3.8c-2.2,0.9-4.5,1.3-6.9,1.3c-2.5,0-4.7-0.5-6.7-1.5c-1.9-1-3.4-2.4-4.4-4.2    c-1-1.8-1.5-3.8-1.5-6.1c0-2.7,0.7-5,2.1-6.9c1.4-1.9,3.5-3.4,6.2-4.4c2.7-1,6-1.5,9.8-1.5h5v-1.4c0-3.8-2.5-5.8-7.4-5.8    c-1.2,0-2.8,0.2-4.7,0.5c-1.9,0.4-3.7,0.8-5.5,1.4l-2.6-7.4c2.3-0.9,4.8-1.6,7.4-2.1c2.6-0.5,5-0.7,7.1-0.7    c5.5,0,9.6,1.1,12.3,3.4c2.7,2.2,4,5.5,4,9.9V148.9z M579.1,151.8c1.3-0.7,2.3-1.7,2.9-3v-6.1h-2.7c-3,0-5.3,0.5-6.8,1.4    c-1.5,0.9-2.2,2.3-2.2,4.2c0,1.5,0.4,2.6,1.3,3.4c0.9,0.8,2.1,1.2,3.7,1.2C576.5,152.9,577.8,152.5,579.1,151.8z"/>
	</g>
	<g>
		<path class="st2" d="M134.5,88h-7l-0.3-17.8l-22.3-15.1l-5,2.4l-4.1-3.3l-12.1,4.4V64h-0.6v2.4h0.9v4.7h-1v1l-31.5-13l0.1-4.9    l-6.5-2.1l0.1-20.5h-0.6v-0.9H42v-1.2h-1.2v-0.9H37v-0.9l-4.4-0.3V13.6H32v14.2h-0.6v2.4h-3.2l-1.8,4.4l-2.9,0.9v16.8L15,58.8    v13.3l8.5,3.8l0,91.9v6h20h562.7c1.5,0,2.8-1.4,2.8-3.2V91.1c0-1.8-1.2-3.2-2.8-3.2H128.7"/>
		<g>
			<path class="st3" d="M44.1,147.8l-1-63.3c0-0.5,0.4-0.8,0.9-0.6l35.5,13.8c0.5,0.2,1.4,0.3,1.9,0.1l12.5-3.1     c0.5-0.1,1.2-0.6,1.5-1.1l0.5-0.9c0.3-0.5,0.9-1,1.5-1.1l3.6-0.8c0.5-0.1,1.4,0,1.9,0.3l16.7,9"/>
		</g>
		<path class="st4" d="M35,154.3c-0.6-12.4,0.2-43.3-0.6-55.7c0-8.7-0.4-16.9,0.2-25.5"/>
		<polyline class="st4" points="42.8,51.6 31.3,48.6 29.3,51 26.6,50.1 25.1,51.6   "/>
		<path class="st5" d="M42.8,74"/>
		<polyline class="st4" points="17.5,68.4 26.9,60.5 29,60.5 31.6,58.7 50.1,64.9 42.8,70.2   "/>
		<polyline class="st4" points="25.1,74 31.9,68.4 36.6,68.4 41.6,69.9   "/>
		<line class="st4" x1="42.8" y1="74" x2="94.8" y2="94.4"/>
		<line class="st4" x1="42.8" y1="72.6" x2="42.8" y2="80.5"/>
		<polyline class="st4" points="85.4,73.2 92.5,75.5 104.5,73.2 124.5,84.4   "/>
		<line class="st4" x1="99.5" y1="58.8" x2="99.5" y2="67.1"/>
		<line class="st4" x1="95.7" y1="58.8" x2="95.7" y2="70.4"/>
		<line class="st4" x1="105.1" y1="57.9" x2="105.1" y2="68.9"/>
		<path class="st5" d="M97.8,119"/>
		<polyline class="st4" points="102.5,88.2 105.1,82.3 122.5,92   "/>
		<line class="st4" x1="105.1" y1="82.3" x2="93.4" y2="86.2"/>
		<line class="st4" x1="52.8" y1="70.5" x2="88.9" y2="85.3"/>
		<line class="st4" x1="33.4" y1="46.3" x2="33.4" y2="30.3"/>
		<line class="st4" x1="28.7" y1="34.2" x2="28.7" y2="48.6"/>
		<path class="st5" d="M50.1,60.5"/>
		<path class="st5" d="M91.6,42.7"/>
		<path class="st5" d="M22.8,25.9"/>
	</g>
</g>
</svg>