<?xml version="1.0" standalone="no"?>
<!DOCTYPE svg PUBLIC "-//W3C//DTD SVG 20010904//EN"
 "http://www.w3.org/TR/2001/REC-SVG-20010904/DTD/svg10.dtd">
<svg version="1.0" xmlns="http://www.w3.org/2000/svg"
 width="700.000000pt" height="700.000000pt" viewBox="0 0 700.000000 700.000000"
 preserveAspectRatio="xMidYMid meet">
<metadata>
Created by potrace 1.11, written by Peter Selinger 2001-2013
</metadata>
<g transform="translate(0.000000,700.000000) scale(0.100000,-0.100000)"
fill="#000000" stroke="none">
<path d="M0 3500 l0 -3500 3500 0 3500 0 0 3500 0 3500 -3500 0 -3500 0 0
-3500z m1784 3260 c51 -19 56 -47 56 -313 l0 -245 23 -6 c12 -3 33 -6 45 -6
13 0 38 -6 55 -14 18 -8 57 -17 88 -21 40 -4 71 -16 105 -38 26 -18 52 -35 58
-39 6 -4 24 -10 40 -13 32 -7 83 -56 97 -93 5 -13 9 -198 9 -410 l0 -388 81
-24 c143 -42 179 -84 179 -211 0 -36 5 -59 13 -62 6 -3 264 -109 571 -236 308
-127 564 -231 569 -231 11 0 3 70 -14 128 -11 35 -11 50 1 90 7 26 16 88 19
138 7 100 22 133 71 159 62 32 462 175 490 175 43 0 79 -17 141 -65 l56 -44
74 35 c125 60 126 60 434 -146 452 -302 599 -402 629 -429 53 -48 56 -66 63
-405 l6 -314 117 -3 c136 -5 163 -16 180 -78 7 -27 9 -522 8 -1569 l-3 -1531
-21 -28 c-11 -15 -32 -34 -45 -40 -19 -10 -511 -12 -2329 -10 -2138 2 -2308 3
-2331 19 -15 9 -34 32 -43 52 -16 33 -15 139 4 1712 11 922 20 1711 20 1754
l0 77 -132 58 c-166 73 -172 77 -198 130 -20 42 -21 56 -18 307 3 251 4 265
25 298 12 19 89 87 172 150 l150 115 1 313 c0 264 2 319 16 347 20 43 44 64
90 80 33 11 40 20 61 76 13 35 31 72 41 82 22 25 66 47 92 47 43 0 50 47 50
330 0 201 3 268 14 294 22 52 63 68 120 46z"/>
<path d="M1786 6025 c-3 -9 1 -15 9 -15 13 0 15 -46 15 -330 0 -323 0 -330
-20 -330 -20 0 -20 7 -20 315 l0 314 -36 -24 c-20 -14 -51 -25 -69 -25 -54 0
-56 -16 -55 -362 0 -303 0 -308 -20 -308 -20 0 -20 6 -20 265 l0 264 -36 -24
c-20 -14 -43 -25 -50 -25 -12 0 -14 -50 -14 -277 0 -265 1 -275 18 -260 17 15
22 15 71 0 l53 -17 41 48 42 48 239 -61 c131 -33 240 -62 242 -64 9 -8 -9 -38
-20 -34 -6 2 -109 28 -229 58 l-218 54 -42 -49 -43 -48 -57 18 -57 18 -25 -24
c-14 -13 -25 -31 -25 -39 0 -37 -47 -85 -189 -195 l-151 -117 0 -166 c0 -156
1 -165 18 -152 9 8 96 80 193 161 169 142 178 148 221 148 36 0 56 8 101 39
l56 40 393 -131 c216 -72 397 -134 401 -138 10 -9 -310 -243 -323 -235 -24 15
-3 37 120 125 l131 94 -352 118 c-194 65 -356 118 -362 118 -5 0 -31 -16 -57
-35 -38 -28 -57 -35 -92 -35 -43 0 -51 -6 -234 -160 -168 -141 -190 -158 -201
-143 -11 14 -13 7 -13 -43 l1 -59 67 -29 c193 -85 230 -106 253 -143 27 -43
26 22 4 -1823 -8 -646 -15 -1295 -15 -1442 l0 -268 2230 0 2230 0 0 1460 0
1460 -102 0 c-78 0 -111 4 -138 18 -67 34 -68 39 -76 415 l-7 338 -401 270
-401 270 -3 -221 c-2 -212 -3 -220 -22 -220 -19 0 -20 7 -20 225 0 152 3 225
11 225 5 0 8 4 4 10 -3 5 -38 -6 -82 -25 -41 -19 -86 -35 -99 -35 l-24 0 0
-165 c0 -158 -1 -165 -20 -165 -19 0 -20 7 -20 165 0 160 -1 165 -22 176 -13
7 -44 29 -71 51 -27 21 -54 38 -60 38 -7 0 -99 -32 -204 -71 l-193 -71 0 -80
c0 -44 -5 -88 -11 -99 -8 -15 -6 -31 6 -64 13 -32 16 -67 14 -134 -4 -87 -5
-91 -39 -126 -45 -47 -67 -58 -107 -57 -18 1 -212 75 -430 166 -219 90 -495
203 -613 252 -118 48 -230 98 -249 112 -43 32 -61 77 -61 154 l0 63 -89 28
c-102 30 -146 62 -161 115 -6 22 -10 187 -10 413 l0 377 -31 6 c-17 3 -49 22
-72 41 -34 29 -48 35 -87 35 -25 0 -62 8 -82 19 -52 26 -124 35 -132 16z
m2584 -1420 c0 -228 -1 -235 -20 -235 -19 0 -20 7 -20 235 0 228 1 235 20 235
19 0 20 -7 20 -235z m-2347 -167 c59 -18 107 -35 107 -38 0 -3 -4 -11 -9 -18
-7 -11 -28 -8 -111 17 -81 24 -122 31 -189 31 l-86 0 -139 -116 c-113 -93
-141 -112 -148 -99 -5 8 -7 19 -4 24 3 5 67 59 141 120 l136 111 97 0 c80 0
116 -6 205 -32z m1340 -370 c421 -171 717 -297 717 -304 0 -7 -4 -15 -9 -19
-6 -3 -164 57 -353 134 -189 77 -520 212 -736 300 -217 87 -396 161 -398 164
-2 2 -2 11 2 20 7 20 -87 55 777 -295z m-1173 189 c0 -22 70 -51 1030 -426
567 -222 1037 -400 1044 -398 8 3 27 25 42 48 39 57 70 73 190 98 78 16 108
18 137 10 49 -13 739 -384 755 -406 6 -9 12 -25 12 -35 0 -25 -35 -58 -61 -58
-12 0 -181 86 -376 191 -352 190 -354 191 -402 185 -101 -13 -144 -33 -168
-74 -13 -24 -38 -47 -65 -60 -49 -25 -550 -152 -600 -152 -20 0 -328 114 -751
276 -394 152 -720 274 -723 271 -3 -3 4 -578 15 -1279 l21 -1273 -25 -22 c-32
-28 -46 -29 -76 -4 l-23 18 -21 1312 c-11 721 -17 1324 -12 1341 7 27 48 60
76 60 10 0 287 -105 1086 -415 l430 -166 210 52 c116 28 216 55 223 58 11 6
-1931 771 -1957 771 -7 0 -11 -39 -11 -115 0 -108 -1 -115 -20 -115 -19 0 -20
7 -20 165 0 158 1 165 20 165 14 0 20 -7 20 -23z m1896 -34 l141 -47 237 48
c130 26 245 46 255 44 32 -6 821 -452 821 -464 0 -7 -4 -16 -10 -19 -7 -4
-682 365 -801 438 -12 8 -81 -3 -250 -37 -129 -25 -243 -46 -254 -46 -10 0
-83 21 -161 47 -120 40 -140 49 -136 65 2 10 7 18 10 18 4 0 70 -21 148 -47z
m-2231 -10 c-13 -107 -15 -407 -6 -909 6 -308 12 -967 14 -1466 4 -876 3 -908
-15 -908 -10 0 -18 1 -19 3 0 1 -6 582 -12 1292 -12 1311 -13 1985 -3 2011 3
8 15 14 26 14 18 0 20 -5 15 -37z m3234 -504 c190 -106 352 -198 360 -204 8
-8 10 -18 5 -28 -7 -12 -75 22 -354 178 -190 106 -348 190 -352 187 -3 -4 -25
-50 -48 -102 -47 -109 -50 -112 -70 -100 -12 7 -7 24 27 102 22 51 39 95 37
97 -2 2 -342 -108 -420 -136 -6 -2 -14 5 -17 16 -4 18 17 28 232 100 130 44
240 80 245 80 5 1 165 -85 355 -190z m-1645 -689 c176 -28 331 -100 432 -199
99 -97 173 -253 240 -502 169 -637 231 -802 380 -1024 34 -52 61 -95 59 -95
-2 0 -90 -27 -196 -60 -150 -47 -194 -58 -201 -48 -145 216 -245 505 -316 919
-18 102 -31 156 -35 144 -4 -12 -67 -256 -141 -544 -74 -288 -136 -525 -138
-526 -5 -5 -376 80 -384 87 -4 4 94 298 216 652 l223 645 63 3 64 3 -31 60
c-33 66 -76 116 -129 150 -43 27 -149 63 -213 71 -26 4 -50 10 -53 15 -4 7 30
221 42 257 2 7 13 11 26 8 13 -3 54 -10 92 -16z"/>
</g>
</svg>
